<svg version="1.0" xmlns="http://www.w3.org/2000/svg" width="300.000000pt" height="300.000000pt"
  viewBox="0 0 300.000000 300.000000" preserveAspectRatio="xMidYMid meet">
  <g transform="translate(0.000000,300.000000) scale(0.100000,-0.100000)" fill="#000000" stroke="none">
    <path
      d="M0 1500 l0 -1500 1500 0 1500 0 0 1500 0 1500 -1500 0 -1500 0 0 -1500z m1785 1450 c10 -11 26 -20 35 -20 21 0 35 -16 43 -51 9 -38 90 -114 152 -144 30 -14 59 -34 65 -45 11 -20 11 -20 38 5 25 23 28 24 40 8 6 -9 12 -30 12 -46 0 -21 12 -40 45 -72 24 -24 60 -68 78 -97 19 -29 44 -61 55 -71 11 -10 23 -34 26 -53 4 -20 17 -41 31 -50 13 -9 32 -36 41 -61 15 -38 34 -59 93 -100 2 -2 5 -11 6 -21 0 -11 11 -31 23 -47 12 -15 22 -37 22 -49 0 -11 10 -41 21 -66 11 -25 21 -58 21 -73 1 -21 18 -46 65 -93 34 -36 63 -67 63 -69 0 -3 -11 -5 -23 -5 -25 0 -145 115 -149 142 0 7 -2 24 -4 38 -5 41 -48 157 -67 177 -9 11 -17 28 -17 39 0 11 -20 36 -45 57 -25 21 -45 46 -45 56 0 9 -13 30 -30 46 -16 16 -30 39 -30 51 0 20 -24 58 -63 97 -18 18 -19 18 -41 -2 -35 -33 -96 -22 -83 13 9 24 -20 32 -42 12 -10 -9 -22 -16 -28 -16 -6 0 -25 -8 -41 -17 -26 -15 -34 -16 -56 -4 -14 8 -37 11 -55 8 -44 -9 -110 -54 -121 -82 -12 -33 -114 -135 -133 -135 -8 0 -22 -3 -31 -6 -14 -5 -14 -8 1 -30 9 -14 13 -34 9 -46 -7 -30 35 -91 89 -128 22 -15 54 -41 70 -57 17 -16 58 -51 92 -76 64 -49 103 -94 103 -120 0 -26 -89 -68 -171 -81 -130 -22 -132 -37 -8 -60 124 -23 169 -42 169 -72 0 -50 -108 -104 -209 -104 -76 0 -115 16 -119 48 -4 28 15 28 45 0 21 -19 27 -20 85 -11 186 31 182 82 -9 113 -88 14 -108 27 -99 63 9 36 71 67 160 79 124 17 136 42 55 107 -59 47 -86 54 -46 13 25 -26 36 -62 20 -62 -19 0 -83 76 -83 98 0 25 -15 41 -128 144 l-62 56 0 61 c0 46 -6 74 -25 111 -14 27 -25 56 -25 64 0 13 -4 14 -25 4 -14 -6 -25 -15 -25 -19 0 -4 -15 -9 -32 -11 -32 -3 -33 -4 -30 -48 6 -96 -37 -92 -72 5 -19 55 -24 60 -51 60 -25 0 -30 4 -33 28 -2 15 -7 27 -13 27 -24 0 -71 -58 -82 -102 -12 -46 -89 -151 -203 -278 -23 -25 -57 -70 -76 -100 -39 -62 -110 -130 -116 -111 -2 7 14 29 35 49 22 20 52 58 66 83 15 25 47 67 73 95 80 86 151 187 177 254 31 75 27 84 -49 121 -24 11 -52 32 -63 45 -23 30 -48 31 -78 2 l-23 -21 -23 21 c-29 27 -42 27 -74 2 -14 -11 -40 -20 -57 -20 -42 0 -72 -22 -97 -73 -12 -23 -34 -58 -49 -77 -42 -54 -56 -87 -81 -194 -21 -88 -29 -105 -68 -148 -44 -50 -78 -74 -88 -64 -4 3 16 29 43 58 55 59 78 105 94 189 6 31 26 80 45 110 64 102 98 174 112 237 7 35 26 82 42 105 15 23 41 67 56 97 15 30 29 56 30 58 3 4 106 -56 125 -73 13 -12 22 -6 63 43 25 31 66 80 89 108 24 28 48 59 53 68 9 15 13 15 50 -4 21 -11 44 -20 51 -20 6 0 19 -9 29 -20 21 -23 130 -80 153 -80 9 0 23 -7 33 -16 16 -14 19 -13 37 28 11 24 41 64 68 90 27 26 72 69 99 97 56 55 74 60 100 31z m-785 -585 c0 -6 9 -20 20 -30 11 -10 20 -22 20 -27 0 -6 16 -28 35 -51 37 -43 44 -77 21 -96 -11 -9 -16 -6 -24 19 -6 17 -18 30 -28 30 -12 0 -15 6 -12 24 4 18 -2 28 -23 40 -31 18 -56 82 -45 111 5 14 9 15 21 5 8 -7 15 -18 15 -25z m1185 -50 c41 -88 69 -102 63 -32 -2 32 0 42 12 42 11 0 16 -14 18 -51 2 -35 9 -57 22 -69 15 -13 16 -21 8 -34 -14 -22 0 -50 108 -212 46 -69 84 -133 84 -142 0 -19 -12 -28 -26 -19 -14 10 -64 102 -64 118 0 7 -13 27 -30 44 -16 17 -30 39 -30 50 0 36 -17 29 -29 -11 -15 -49 -77 -139 -97 -139 -21 0 -17 14 26 96 40 75 49 117 30 129 -5 3 -10 19 -10 34 0 16 -7 34 -15 41 -8 7 -15 18 -15 26 0 7 -16 25 -35 40 -23 17 -39 40 -46 67 -6 22 -17 50 -25 62 -13 21 -10 35 8 35 4 0 24 -34 43 -75z m-178 -52 c-15 -48 -27 -95 -27 -104 0 -25 -68 -108 -95 -115 -13 -3 -31 -2 -40 4 -15 8 -13 12 17 30 62 38 83 69 83 121 0 37 6 54 28 80 15 18 27 43 27 55 0 28 10 40 24 26 6 -6 0 -40 -17 -97z m-1260 -15 c-14 -48 -42 -68 -31 -21 12 51 24 74 33 68 6 -3 5 -22 -2 -47z m170 -92 c-5 -42 -13 -56 -40 -81 -26 -23 -36 -41 -41 -75 -4 -24 -20 -65 -35 -90 -16 -25 -32 -56 -35 -68 -4 -12 -12 -22 -17 -22 -15 0 -10 41 10 74 11 17 24 51 31 76 6 25 18 56 27 68 8 13 13 26 11 28 -9 8 -87 -37 -106 -60 -10 -14 -36 -33 -56 -43 -25 -11 -45 -32 -58 -57 -15 -28 -22 -35 -28 -26 -5 8 -4 23 2 34 16 32 70 86 86 86 8 0 34 18 58 40 24 22 57 43 73 46 40 8 78 48 91 94 16 58 34 41 27 -24z m621 34 c3 -21 2 -22 -12 -11 -19 16 -21 44 -3 39 6 -3 14 -15 15 -28z m-228 -39 c0 -16 6 -31 13 -34 12 -4 9 -18 -38 -162 -7 -22 -16 -52 -19 -67 -7 -32 -53 -88 -72 -88 -19 0 -18 7 8 43 12 16 25 49 29 71 4 23 15 61 24 86 9 25 19 75 22 112 4 48 10 68 19 68 9 0 14 -11 14 -29z m824 -10 c10 -16 -20 -113 -38 -123 -22 -12 -49 8 -28 21 7 4 10 15 7 24 -4 10 1 20 15 27 11 6 18 15 15 20 -7 11 5 40 15 40 5 0 11 -4 14 -9z m-647 -122 c12 -24 23 -51 23 -60 0 -9 11 -20 25 -23 29 -7 51 -46 56 -96 6 -52 -13 -51 -42 3 -14 27 -37 54 -50 61 -16 7 -26 23 -30 46 -3 19 -11 45 -17 57 -16 28 -15 66 0 61 7 -3 22 -24 35 -49z m-729 -296 c47 -23 53 -53 16 -82 -15 -11 -35 -21 -45 -21 -10 0 -21 -4 -24 -10 -4 -6 9 -10 32 -10 21 0 57 -9 81 -20 53 -24 55 -50 8 -95 -43 -40 -131 -66 -250 -73 l-88 -5 7 104 c4 57 11 124 15 149 6 30 5 49 -3 58 -20 25 14 33 116 28 65 -3 111 -11 135 -23z m612 -4 c0 -13 -16 -17 -96 -22 -52 -4 -99 -9 -105 -12 -5 -4 -9 -29 -9 -57 l0 -51 73 7 c39 3 87 9 105 12 29 6 33 4 30 -12 -3 -16 -20 -21 -106 -33 l-102 -14 0 -40 0 -40 118 7 c64 4 125 9 135 12 18 6 22 -3 9 -23 -12 -19 -103 -33 -214 -33 l-98 0 2 158 3 157 128 0 c111 1 127 -1 127 -16z m1248 -16 c4 -27 -12 -32 -113 -35 l-70 -3 2 -123 1 -123 -26 3 c-27 3 -27 4 -28 83 0 44 -1 99 -2 123 l-2 42 -45 0 c-50 0 -95 17 -95 36 0 17 25 19 215 19 158 0 160 0 163 -22z m-1045 -446 c-7 -80 -20 -85 -57 -22 -15 25 -31 45 -36 45 -6 0 -10 -22 -10 -50 0 -39 -3 -50 -16 -50 -12 0 -15 6 -10 25 4 14 9 45 13 70 3 25 11 45 17 45 6 0 24 -21 41 -47 28 -45 30 -46 36 -22 4 13 7 40 8 59 1 22 4 31 11 24 6 -6 7 -37 3 -77z m627 76 c1 -5 22 -30 47 -58 l46 -50 -7 58 c-5 47 -4 57 9 57 11 0 15 -12 15 -52 0 -29 3 -63 6 -75 10 -36 -11 -27 -66 30 l-51 52 3 -54 c2 -37 -1 -56 -9 -58 -10 -4 -13 16 -13 76 0 47 4 81 10 81 6 0 10 -3 10 -7z m-123 -35 c21 -17 15 -57 -13 -85 -20 -20 -31 -24 -57 -19 -71 14 -89 88 -28 118 34 17 67 12 98 -14z m-737 13 c0 -6 -21 -11 -47 -13 -41 -3 -48 -6 -51 -25 -3 -21 1 -23 42 -23 25 0 46 -4 46 -9 0 -5 -6 -9 -12 -8 -49 1 -79 -4 -76 -15 3 -8 23 -11 56 -9 29 1 52 -2 52 -7 0 -10 -99 -21 -120 -14 -11 4 -13 45 -4 90 7 32 18 38 82 41 17 0 32 -3 32 -8z m-420 -10 c0 -4 -21 -11 -46 -14 -25 -2 -53 -12 -61 -20 -13 -13 -9 -16 36 -22 41 -5 51 -11 51 -26 0 -21 -21 -35 -71 -44 -29 -5 -38 -3 -43 10 -5 14 -2 16 21 12 31 -6 73 7 73 23 0 5 -18 10 -40 10 -44 0 -61 20 -43 49 16 25 123 44 123 22z m207 -7 c3 -8 -10 -10 -43 -6 -32 3 -49 1 -54 -9 -14 -21 -3 -28 39 -23 22 3 42 0 45 -5 8 -12 -57 -26 -79 -17 -10 4 -15 -1 -15 -15 0 -18 5 -20 55 -18 30 1 56 -2 57 -7 2 -5 -28 -10 -66 -12 l-68 -3 7 58 c4 32 9 62 12 66 7 12 106 4 110 -9z m1330 -229 c105 -16 197 -14 302 7 47 9 56 8 67 -6 18 -26 27 -88 14 -96 -6 -4 -55 -10 -108 -14 -53 -4 -115 -9 -136 -13 l-39 -6 7 -128 c11 -228 27 -472 36 -539 9 -71 4 -180 -8 -191 -16 -15 -49 -18 -66 -6 -21 16 -31 102 -41 377 -7 201 -23 444 -31 474 -5 20 -14 24 -57 30 -29 3 -75 6 -104 6 -28 0 -55 5 -59 11 -12 20 -7 88 7 105 15 18 36 17 216 -11z m-2069 3 c7 -7 12 -27 12 -46 l0 -34 58 6 c31 4 120 16 197 28 197 28 259 36 264 32 2 -2 6 -26 9 -54 l5 -50 -69 0 c-38 0 -121 -9 -184 -19 -63 -10 -144 -22 -179 -26 -48 -6 -70 -13 -88 -32 -24 -23 -25 -29 -21 -133 1 -59 6 -111 9 -114 3 -3 79 14 170 39 193 53 267 65 280 44 14 -23 10 -55 -8 -71 -28 -25 -159 -58 -253 -65 -97 -7 -125 -18 -167 -66 -32 -37 -34 -44 -53 -232 -6 -60 -14 -129 -16 -153 l-5 -42 -55 0 -56 0 7 68 c4 37 13 99 20 137 7 39 16 91 20 118 6 43 4 47 -15 47 -45 0 -38 55 16 114 l35 40 -8 150 c-13 238 -10 286 17 308 26 21 41 23 58 6z m914 2 c46 -13 103 -76 119 -132 23 -83 15 -182 -26 -311 l-37 -117 23 -98 c14 -61 23 -129 24 -184 0 -83 -1 -88 -30 -117 -59 -63 -181 -68 -240 -11 -44 43 -58 98 -60 250 -2 112 -5 135 -34 220 -29 84 -33 104 -29 175 5 102 48 195 125 272 62 61 95 72 165 53z m583 -13 c11 -5 38 -29 61 -52 56 -58 95 -158 101 -255 4 -66 1 -89 -30 -185 -31 -97 -36 -125 -39 -241 -4 -121 -7 -135 -32 -178 -35 -59 -78 -79 -163 -74 -69 4 -97 22 -119 75 -20 47 -17 137 7 229 28 105 26 172 -7 264 -38 102 -40 240 -6 315 42 92 92 129 162 119 25 -4 54 -11 65 -17z" />
    <path
      d="M1713 2903 c-9 -16 -40 -47 -69 -71 -65 -52 -71 -74 -18 -62 22 5 45 4 59 -2 15 -6 34 -6 58 0 54 15 111 -16 142 -79 14 -26 29 -50 35 -54 19 -12 21 21 5 69 -9 25 -13 50 -10 55 3 6 -10 15 -29 22 -28 10 -38 21 -48 53 -8 25 -22 45 -36 51 -12 5 -25 18 -28 27 -8 27 -43 22 -61 -9z" />
    <path
      d="M1157 2781 c-15 -22 -43 -56 -63 -76 l-36 -36 51 25 c43 22 54 24 76 14 14 -6 25 -19 25 -30 0 -24 22 -23 38 3 16 26 75 51 98 42 12 -4 15 -3 10 5 -4 7 -13 12 -20 12 -7 0 -21 9 -31 20 -11 12 -31 20 -48 20 -17 0 -40 9 -52 20 l-22 21 -26 -40z" />
    <path
      d="M1616 2741 c-3 -4 -18 -11 -34 -14 -17 -3 -37 -18 -47 -34 -10 -15 -29 -37 -43 -49 l-24 -20 21 -42 c11 -22 21 -52 21 -66 0 -15 8 -30 20 -36 13 -7 20 -21 20 -39 0 -17 10 -36 25 -49 20 -17 25 -31 25 -66 0 -26 6 -48 15 -56 8 -7 15 -21 15 -30 0 -17 2 -17 31 -3 45 22 117 96 121 124 2 16 20 34 60 59 41 25 72 55 107 105 55 78 79 105 105 120 21 12 13 42 -14 50 -10 3 -35 17 -55 31 -21 14 -40 23 -42 20 -3 -3 3 -28 13 -55 29 -81 -5 -126 -64 -85 -12 8 -22 22 -22 30 0 23 -29 74 -42 74 -6 0 -22 9 -34 21 -18 17 -26 19 -42 10 -26 -14 -79 -14 -87 -1 -8 12 -42 13 -49 1z m62 -73 c2 -18 -6 -33 -29 -52 -17 -15 -30 -28 -28 -30 2 -1 24 -8 47 -16 30 -9 47 -22 53 -38 5 -13 18 -26 29 -29 39 -10 22 -33 -24 -33 -41 0 -45 2 -48 28 -2 20 -9 28 -28 30 -14 2 -29 8 -34 13 -15 14 -36 11 -36 -5 0 -8 15 -24 34 -35 21 -13 40 -37 50 -61 20 -51 20 -69 -3 -99 -25 -33 -44 -19 -39 28 7 55 -9 96 -47 125 -19 15 -35 35 -35 45 0 20 35 60 85 99 20 15 26 25 17 28 -10 5 -10 9 -1 20 17 20 33 12 37 -18z m167 -58 c18 -34 19 -50 5 -50 -13 0 -41 61 -34 72 8 13 13 9 29 -22z" />
    <path
      d="M1373 2693 c-60 -3 -75 -7 -83 -23 -11 -21 -60 -50 -83 -50 -8 0 -20 14 -27 30 -7 17 -18 30 -25 30 -22 0 -121 -49 -139 -68 -15 -18 -15 -20 5 -38 29 -26 59 -92 59 -130 0 -28 7 -36 53 -64 28 -18 55 -38 60 -44 5 -8 9 -8 15 0 4 6 24 31 45 56 39 48 41 70 6 89 -21 11 -26 63 -8 75 12 7 31 -15 24 -27 -5 -7 33 -45 38 -38 2 2 30 44 62 92 50 74 61 86 71 73 10 -14 13 -14 28 3 17 18 17 20 -3 30 -11 6 -21 10 -23 9 -2 -1 -36 -4 -75 -5z m-9 -68 c3 -8 1 -17 -4 -20 -11 -7 -42 24 -35 35 7 12 32 2 39 -15z m-183 -17 c4 -49 -6 -99 -29 -141 -23 -45 -26 -48 -34 -28 -5 14 -2 35 7 58 8 19 15 46 15 60 0 42 38 89 41 51z" />
    <path
      d="M2099 2644 c-13 -14 -36 -32 -51 -40 -16 -8 -28 -21 -28 -29 0 -8 -16 -36 -36 -62 l-36 -47 37 -14 c34 -14 39 -13 86 12 28 14 57 26 64 26 28 0 66 -24 60 -37 -8 -23 36 -11 52 14 14 21 12 25 -35 75 -27 29 -55 70 -63 91 -7 20 -16 37 -19 37 -4 0 -17 -12 -31 -26z" />
    <path
      d="M800 2588 c-60 -106 -68 -122 -75 -156 -6 -31 -6 -32 20 -22 14 5 35 10 47 10 11 0 33 11 50 25 34 29 64 32 89 9 16 -14 20 -14 48 0 16 9 37 16 46 16 14 0 14 3 -1 31 -21 42 -90 104 -141 129 -24 11 -44 20 -45 20 -2 0 -19 -28 -38 -62z" />
    <path
      d="M1389 2543 c-18 -37 -48 -87 -66 -110 l-34 -42 23 -23 c13 -13 36 -30 53 -38 22 -11 35 -28 47 -65 l17 -50 1 41 c0 47 14 64 51 64 15 0 29 7 33 15 3 8 15 15 26 15 25 0 26 12 0 35 -11 10 -20 28 -20 40 0 12 -11 31 -24 44 -12 12 -29 41 -36 64 -7 23 -18 50 -25 60 -12 17 -16 12 -46 -50z" />
    <path
      d="M583 1712 c-16 -2 -23 -12 -28 -43 -4 -22 -4 -43 -1 -46 7 -8 109 14 154 33 37 15 42 41 10 48 -33 7 -109 12 -135 8z" />
    <path d="M527 1613 c-3 -5 -2 -15 3 -23 7 -11 13 -11 32 -2 13 7 15 10 6 8 -10 -3 -21 2 -26 11 -5 8 -12 11 -15 6z" />
    <path d="M658 1613 c6 -2 18 -2 25 0 6 3 1 5 -13 5 -14 0 -19 -2 -12 -5z" />
    <path
      d="M564 1563 c-6 -5 -13 -32 -16 -60 l-5 -53 36 0 c52 0 143 24 182 46 24 14 34 27 34 45 0 24 -1 24 -110 27 -60 1 -115 -1 -121 -5z" />
    <path d="M820 1529 c0 -5 5 -7 10 -4 6 3 10 8 10 11 0 2 -4 4 -10 4 -5 0 -10 -5 -10 -11z" />
    <path d="M1140 1554 c0 -8 5 -12 10 -9 6 3 10 10 10 16 0 5 -4 9 -10 9 -5 0 -10 -7 -10 -16z" />
    <path d="M2335 1693 c22 -3 45 -9 52 -15 15 -12 47 -2 38 12 -3 5 -34 9 -68 8 -47 -1 -52 -2 -22 -5z" />
    <path d="M1983 1298 c-62 -30 6 -97 71 -72 23 9 19 50 -6 68 -26 18 -34 19 -65 4z" />
    <path
      d="M2259 1049 c0 -8 -2 -22 -4 -31 -4 -24 -2 -25 82 -32 114 -10 136 -23 146 -86 8 -46 21 -263 33 -535 7 -181 14 -248 25 -261 31 -37 37 21 24 236 -3 58 -8 114 -12 125 -3 11 -5 39 -4 62 1 23 -3 51 -9 62 -8 16 -8 21 1 21 7 0 9 16 6 48 -3 26 -8 99 -11 163 -4 102 -3 119 12 132 16 14 62 21 201 32 30 2 59 9 65 15 17 17 -7 45 -35 42 -144 -16 -255 -17 -344 -2 -132 22 -175 24 -176 9z" />
    <path
      d="M339 1029 c-8 -15 -9 -63 -5 -158 12 -260 11 -279 -17 -309 -13 -15 -30 -38 -37 -50 -10 -21 -9 -27 9 -43 12 -11 21 -25 22 -32 3 -30 -4 -87 -16 -142 -7 -33 -16 -86 -20 -117 -5 -50 -4 -58 13 -67 28 -15 38 2 45 74 14 135 27 252 33 279 4 17 28 50 55 76 47 45 52 48 123 54 140 13 262 46 281 76 11 19 -26 23 -83 10 -32 -7 -64 -14 -72 -15 -8 -1 -22 -5 -30 -8 -35 -14 -158 -47 -195 -52 -69 -11 -83 14 -86 145 -2 83 9 122 42 148 16 13 37 25 47 27 26 5 124 18 147 20 11 1 45 7 76 14 31 6 93 13 138 14 69 2 82 5 87 21 9 28 -7 35 -61 26 -27 -5 -70 -11 -95 -14 -25 -2 -45 -5 -45 -6 0 -4 -65 -14 -160 -24 -22 -3 -57 -8 -79 -11 -48 -7 -86 15 -86 50 0 33 -16 40 -31 14z" />
    <path
      d="M1249 1056 c-2 -3 -16 -7 -31 -10 -25 -4 -82 -36 -76 -42 2 -2 21 1 43 6 22 5 48 7 58 4 10 -3 24 -1 31 5 9 8 22 8 45 0 49 -17 49 -3 0 20 -42 21 -61 25 -70 17z" />
    <path
      d="M1198 1002 c-16 -2 -28 -9 -28 -17 0 -7 -24 -35 -53 -62 -29 -26 -59 -64 -67 -83 -16 -42 -23 -167 -11 -195 45 -107 63 -169 65 -223 1 -34 -1 -62 -5 -62 -3 0 -4 -24 -3 -52 8 -142 19 -168 69 -168 19 0 35 3 35 8 0 4 9 18 20 32 l19 25 35 -34 c22 -21 41 -31 50 -28 9 4 16 2 16 -3 0 -23 -50 -9 -72 20 l-22 30 -24 -30 c-17 -22 -32 -30 -55 -30 l-31 0 22 -23 c31 -30 148 -32 181 -3 12 11 20 24 18 30 -2 5 5 18 14 27 19 19 20 69 4 172 -8 50 -15 56 -35 32 -7 -8 -17 -15 -22 -15 -5 0 3 10 18 23 23 20 25 26 15 45 -21 40 -22 99 -2 150 14 36 17 52 9 60 -14 14 -75 -69 -84 -113 -6 -35 18 -99 42 -113 10 -5 14 -14 9 -21 -5 -9 -16 0 -34 26 -20 29 -26 50 -26 91 0 37 -4 52 -14 52 -8 0 -11 6 -7 16 5 14 1 16 -26 10 -40 -8 -45 -13 -28 -29 7 -6 10 -7 7 -1 -3 6 -1 11 6 11 7 0 12 -17 13 -41 1 -24 0 -29 -3 -13 -4 25 -23 39 -23 16 0 -5 -5 -7 -11 -4 -6 4 -8 13 -5 21 3 8 0 14 -6 14 -23 0 44 58 73 64 17 3 28 10 25 14 -3 5 4 16 15 25 16 14 19 14 19 2 0 -8 -4 -15 -10 -15 -5 0 -10 -5 -10 -11 0 -5 5 -7 10 -4 6 3 10 1 10 -4 0 -6 -10 -11 -23 -11 -14 0 -24 -6 -24 -15 0 -8 5 -15 11 -15 6 0 4 -5 -4 -10 -13 -9 -13 -10 0 -10 20 1 50 43 52 74 2 19 5 22 15 14 19 -15 16 2 -4 24 -15 17 -15 18 1 18 12 0 17 7 15 23 -2 12 0 27 4 34 4 6 3 14 -3 18 -5 3 -10 11 -10 17 0 6 11 1 25 -12 42 -39 28 -9 -16 36 -44 45 -45 70 -3 60 13 -4 24 -3 24 1 0 11 -38 34 -42 25 -2 -4 -18 -18 -36 -31 -27 -18 -36 -20 -45 -11 -8 9 -8 11 -1 7 6 -4 20 1 30 9 19 15 19 15 0 10 -15 -5 -17 -4 -8 7 7 8 11 16 9 18 -1 2 3 -1 9 -8 6 -6 16 -8 23 -4 10 7 10 12 0 30 -15 22 -29 28 -29 11 0 -13 -27 -13 -35 1 -4 6 0 9 11 7 10 -2 19 3 20 10 1 6 2 14 3 17 0 3 15 -2 32 -10 17 -9 33 -15 35 -12 6 6 -15 20 -48 35 -24 10 -29 9 -38 -8 -6 -11 -17 -20 -26 -20 -25 0 -94 -40 -94 -54 0 -7 -9 -24 -19 -38 -15 -18 -18 -34 -14 -65 3 -25 1 -43 -6 -47 -6 -4 -11 -15 -11 -25 0 -10 -7 -24 -15 -31 -14 -11 -14 -10 -5 14 12 33 13 39 2 32 -5 -3 -9 1 -9 9 0 11 4 12 14 4 10 -9 13 -7 14 7 0 11 2 27 4 37 5 24 -9 21 -29 -5 -16 -22 -16 -21 -1 9 8 17 19 35 25 38 5 3 10 11 10 16 0 6 -6 7 -12 3 -9 -5 -9 -3 1 9 7 9 17 15 21 12 4 -2 12 7 18 20 7 14 25 33 42 43 16 10 27 21 24 25 -3 3 3 3 15 0 17 -4 51 15 51 30 0 9 -24 13 -52 9z m28 -86 c20 -20 18 -23 -18 -41 -53 -25 -75 -45 -61 -53 9 -6 7 -11 -6 -19 -26 -16 -24 15 2 45 12 13 16 22 8 22 -7 0 -9 5 -6 10 3 6 11 10 16 10 6 0 7 -4 4 -10 -3 -5 -2 -10 4 -10 5 0 13 5 16 10 3 6 15 10 26 10 12 0 17 4 14 11 -4 6 -13 8 -19 6 -7 -3 -13 1 -13 9 0 18 15 18 33 0z m-11 -75 c-3 -6 2 -14 11 -19 20 -11 9 -36 -13 -28 -8 4 -31 -12 -58 -40 -25 -25 -45 -42 -45 -37 0 5 20 28 44 52 30 29 50 42 61 37 10 -3 14 -2 9 5 -3 6 -16 8 -28 5 -15 -4 -23 -1 -23 8 0 8 6 12 13 9 6 -2 15 0 19 6 3 6 8 11 11 11 3 0 3 -4 -1 -9z m64 -40 c-29 -24 -18 -27 16 -5 14 9 25 12 25 8 0 -5 -15 -18 -33 -29 -30 -18 -37 -21 -62 -24 -5 -1 -4 -5 4 -10 8 -5 11 -16 8 -26 -4 -9 -12 -13 -18 -10 -11 7 -64 -37 -80 -67 -6 -11 -4 -18 6 -21 9 -4 12 -1 9 7 -3 7 2 19 11 26 10 8 15 9 15 1 0 -6 -4 -11 -8 -11 -4 0 -8 -9 -8 -20 0 -18 2 -18 15 -5 9 8 15 27 16 42 0 15 7 28 15 30 13 4 13 3 1 -6 -12 -8 -10 -11 12 -16 31 -8 37 -35 8 -35 -11 0 -33 -14 -50 -32 -16 -17 -29 -25 -28 -17 1 8 -2 15 -7 16 -21 3 -26 33 -11 57 14 22 14 24 -1 30 -27 10 40 75 69 69 18 -4 20 -3 7 7 -13 10 -13 11 3 6 9 -3 17 -1 17 4 0 5 8 7 18 3 9 -3 14 -2 9 2 -8 9 33 58 41 50 3 -2 -6 -13 -19 -24z m-129 -15 c0 -2 -8 -10 -17 -17 -16 -13 -17 -12 -4 4 13 16 21 21 21 13z m157 -47 c-24 -14 -21 -28 6 -22 13 3 5 -6 -21 -22 -23 -14 -48 -24 -55 -22 -7 3 0 10 16 16 15 6 27 13 27 17 0 3 -8 3 -17 0 -16 -6 -16 -6 0 12 9 10 14 22 10 26 -4 4 0 4 9 1 9 -4 19 -1 23 5 4 6 10 8 13 5 4 -4 -1 -11 -11 -16z m-203 -91 c-5 -27 19 -88 35 -88 10 0 31 -77 31 -115 0 -15 -5 -36 -12 -48 -6 -12 -11 -37 -9 -54 1 -18 -2 -33 -8 -33 -16 0 -23 18 -9 23 10 3 10 9 1 24 -9 16 -8 23 4 36 11 10 15 32 14 67 0 42 -8 63 -35 104 -26 40 -33 59 -30 86 3 24 1 30 -5 20 -6 -8 -8 -17 -6 -20 2 -4 -2 -7 -10 -7 -15 0 -11 11 13 40 20 23 34 4 26 -35z m198 -127 c-9 -16 -18 -28 -21 -26 -4 5 27 55 34 55 2 0 -4 -13 -13 -29z m-163 -35 c-1 -20 -2 -20 -6 -1 -3 11 -10 27 -17 35 -10 13 -9 13 7 1 9 -7 16 -23 16 -35z m111 23 c0 -6 -4 -7 -10 -4 -5 3 -10 11 -10 16 0 6 5 7 10 4 6 -3 10 -11 10 -16z m54 -44 c3 -8 1 -15 -4 -15 -6 0 -10 7 -10 15 0 8 2 15 4 15 2 0 6 -7 10 -15z m-68 -19 c20 -21 17 -28 -6 -14 -11 7 -20 16 -20 20 0 12 10 9 26 -6z m-14 -73 l11 -28 6 25 c9 32 36 37 51 10 18 -33 9 -51 -15 -28 -20 19 -20 19 0 12 17 -6 18 -5 7 7 -11 12 -16 10 -32 -11 l-18 -24 -20 24 c-11 14 -24 21 -28 17 -5 -4 -2 -13 6 -18 13 -9 13 -10 0 -6 -11 3 -16 -2 -17 -15 -2 -15 1 -17 11 -9 18 15 51 -33 40 -57 -6 -14 -8 -12 -12 8 -4 27 -22 53 -22 32 0 -7 -7 -12 -15 -12 -10 0 -15 10 -15 33 0 42 10 55 48 66 1 1 8 -11 14 -26z m118 -43 c-8 -5 -17 -7 -19 -4 -3 3 1 9 9 14 8 5 17 7 19 4 3 -3 -1 -9 -9 -14z m-30 -22 c0 -12 -28 -9 -36 3 -5 8 -10 6 -16 -5 -11 -19 3 -48 35 -71 l22 -17 -22 7 c-13 3 -23 2 -23 -3 0 -5 10 -14 23 -20 12 -6 16 -11 9 -11 -8 -1 -10 -6 -6 -13 4 -7 -2 -4 -14 6 -12 11 -22 24 -22 31 0 6 -5 16 -12 23 -9 9 -16 2 -30 -29 -16 -37 -20 -40 -34 -28 -15 12 -16 11 -9 -10 6 -21 4 -20 -28 10 -41 39 -41 49 -1 22 25 -16 27 -16 22 -1 -5 11 1 22 18 32 13 9 24 12 24 7 0 -6 -8 -14 -17 -20 -14 -8 -15 -12 -6 -20 7 -6 11 -8 9 -5 -5 6 3 18 37 55 10 11 15 24 11 30 -3 6 -1 21 6 34 10 19 15 21 36 11 13 -6 24 -14 24 -18z m39 -10 c-7 -13 -10 -24 -8 -25 2 -1 1 -5 -3 -9 -9 -9 -10 18 -2 40 3 9 10 16 15 16 6 0 4 -10 -2 -22z m-199 -45 c0 -13 -6 -23 -14 -23 -8 0 -12 9 -11 25 2 14 -1 27 -6 31 -5 3 -9 10 -9 16 0 6 9 3 20 -7 11 -10 20 -29 20 -42z m145 27 c3 -5 1 -10 -4 -10 -6 0 -11 5 -11 10 0 6 2 10 4 10 3 0 8 -4 11 -10z m-105 -4 c0 -3 -4 -8 -10 -11 -5 -3 -10 -1 -10 4 0 6 5 11 10 11 6 0 10 -2 10 -4z m165 -26 c-3 -5 -12 -10 -18 -10 -7 0 -6 4 3 10 19 12 23 12 15 0z m1 -34 c-20 -17 -24 -25 -15 -29 10 -4 9 -6 -3 -6 -25 -1 -22 24 5 42 35 25 45 19 13 -7z m-13 -53 c-7 -2 -19 -2 -25 0 -7 3 -2 5 12 5 14 0 19 -2 13 -5z m-59 -32 c3 -4 -3 -16 -13 -25 -15 -14 -24 -15 -40 -6 -35 18 -25 40 20 40 15 0 30 -4 33 -9z" />
    <path
      d="M1154 717 c-16 -17 -23 -28 -16 -23 7 4 12 2 12 -5 0 -7 10 -3 23 9 13 12 31 22 41 22 22 0 13 16 -13 23 -12 3 -28 -6 -47 -26z" />
    <path d="M1205 650 c-3 -5 1 -10 10 -10 9 0 13 5 10 10 -3 6 -8 10 -10 10 -2 0 -7 -4 -10 -10z" />
    <path d="M1250 251 c0 -5 5 -13 10 -16 6 -3 10 -2 10 4 0 5 -4 13 -10 16 -5 3 -10 2 -10 -4z" />
    <path d="M1232 114 c9 -9 21 -13 27 -10 20 13 11 26 -16 26 -25 0 -26 -1 -11 -16z" />
    <path
      d="M1270 999 c0 -6 9 -9 20 -6 11 3 18 2 15 -3 -7 -11 24 -22 37 -13 7 3 8 1 4 -5 -4 -6 6 -18 24 -27 18 -9 30 -11 30 -5 0 6 -7 13 -16 17 -12 5 -13 7 -3 14 10 6 3 13 -23 24 -44 18 -88 20 -88 4z" />
    <path d="M1129 980 c-19 -11 -62 -80 -51 -80 8 0 45 38 71 73 15 19 5 22 -20 7z" />
    <path
      d="M1320 931 c-21 -6 -22 -8 -8 -14 10 -3 20 -2 23 3 4 6 11 10 18 10 8 0 8 -3 -1 -12 -9 -9 -6 -18 15 -40 34 -35 52 -36 45 -3 -2 14 -9 25 -16 25 -7 0 -6 4 2 9 10 6 5 11 -19 20 -17 6 -32 11 -33 10 -1 -1 -12 -4 -26 -8z m55 -21 c-3 -5 -12 -10 -18 -10 -7 0 -6 4 3 10 19 12 23 12 15 0z" />
    <path d="M1310 854 c0 -7 40 -44 48 -44 2 0 0 6 -6 13 -6 6 -10 17 -11 22 0 11 -31 20 -31 9z" />
    <path d="M1379 840 c13 -11 28 -20 33 -20 6 0 -1 9 -15 20 -33 26 -49 26 -18 0z" />
    <path
      d="M1359 827 c6 -8 8 -17 4 -20 -3 -4 1 -15 11 -26 9 -10 16 -22 15 -27 -3 -20 2 -34 12 -34 8 0 8 4 0 14 -9 11 -8 15 5 20 15 6 15 8 -2 27 -17 19 -17 20 2 14 13 -5 10 1 -11 19 -32 27 -55 35 -36 13z" />
    <path
      d="M1347 743 c-3 -5 -2 -15 3 -23 5 -8 3 -21 -3 -31 -10 -15 -7 -23 12 -41 18 -17 22 -19 18 -6 -3 9 -2 18 2 20 22 8 20 45 -3 67 -13 12 -26 19 -29 14z" />
    <path d="M1206 591 c-3 -4 6 -6 19 -3 14 2 25 6 25 8 0 8 -39 4 -44 -5z" />
    <path
      d="M1754 1046 c-44 -19 -54 -38 -13 -24 23 8 37 8 49 0 10 -6 27 -8 38 -6 10 3 36 1 56 -4 20 -6 36 -7 36 -3 0 13 -61 43 -76 37 -9 -3 -12 -1 -9 4 9 15 -45 12 -81 -4z" />
    <path
      d="M1734 1009 c-30 -8 -72 -55 -60 -66 3 -3 20 4 38 16 18 11 26 21 18 21 -13 0 -13 1 0 10 8 5 23 7 34 4 12 -4 16 -2 12 5 -5 7 -1 8 10 4 12 -4 15 -3 10 5 -8 14 -18 14 -62 1z" />
    <path
      d="M1805 995 c-16 -8 -39 -12 -50 -9 -14 4 -16 3 -7 -4 10 -7 0 -16 -40 -37 -29 -15 -41 -24 -26 -21 15 3 30 2 33 -4 9 -14 18 -13 41 6 18 15 18 15 -9 9 -19 -4 -26 -2 -22 5 3 5 15 10 26 10 10 0 19 4 19 9 0 15 35 5 35 -10 1 -8 7 -13 15 -11 12 3 13 1 2 -10 -11 -11 -15 -10 -23 5 -12 20 -31 23 -23 3 3 -8 -3 -17 -14 -20 -11 -4 -28 -16 -38 -28 -19 -21 -19 -21 0 -15 10 4 25 2 33 -4 11 -10 11 -15 -3 -30 -14 -16 -14 -18 7 -29 20 -11 21 -10 15 6 -5 13 2 10 23 -10 37 -36 27 -56 -15 -30 -16 10 -34 24 -40 31 -9 11 -14 11 -24 -2 -9 -11 -9 -15 -1 -15 7 0 29 -18 51 -41 21 -22 32 -38 24 -35 -8 3 -14 1 -14 -4 0 -5 9 -12 20 -15 11 -3 20 -11 20 -16 0 -5 -18 1 -40 13 -44 25 -52 39 -17 31 21 -5 21 -5 5 12 -18 20 -36 13 -47 -18 -8 -20 -8 -20 -13 1 -4 12 -2 20 3 16 11 -6 12 9 2 20 -4 4 -16 -3 -26 -16 -13 -16 -17 -18 -13 -5 3 9 1 17 -5 17 -5 0 2 15 16 34 22 29 23 34 9 40 -9 3 -21 3 -26 -1 -7 -3 -8 -1 -4 5 4 7 3 12 -3 12 -18 0 -1 -151 20 -176 5 -6 6 -14 2 -17 -3 -4 -3 -7 2 -7 5 0 20 14 35 31 l26 31 0 -45 c1 -30 8 -54 23 -72 11 -15 21 -36 21 -46 0 -9 8 -20 18 -22 16 -4 16 -5 -1 -6 -11 -1 -17 -8 -16 -18 4 -25 -27 -93 -42 -93 -6 0 -9 -6 -6 -13 7 -19 -8 -43 -17 -28 -4 6 -2 11 4 11 6 0 9 4 5 9 -3 5 6 27 21 48 22 32 25 46 22 89 -3 30 -11 59 -21 69 -9 9 -17 25 -17 36 0 11 -4 17 -10 14 -6 -4 -7 1 -3 12 6 16 5 16 -10 4 -20 -16 -21 -37 -4 -82 16 -39 15 -79 -2 -132 -7 -20 -9 -42 -5 -48 4 -7 3 -9 -3 -6 -13 8 -22 -22 -19 -62 1 -16 -2 -28 -6 -25 -4 3 -8 -6 -8 -20 0 -17 9 -30 30 -43 17 -9 30 -23 30 -29 0 -7 3 -19 6 -28 7 -18 -21 -23 -31 -6 -3 6 1 7 10 4 21 -9 8 25 -19 48 -22 17 -41 14 -29 -5 4 -7 6 -20 4 -31 -7 -43 78 -52 105 -11 22 33 39 32 61 -5 12 -22 25 -30 44 -30 28 0 58 21 61 43 0 7 3 23 5 37 9 63 10 140 1 140 -5 0 -6 5 -3 10 4 6 7 39 9 73 1 38 9 77 21 102 11 22 20 42 21 45 0 3 6 17 12 32 17 42 20 157 5 207 -8 29 -26 55 -48 73 -35 29 -90 98 -66 83 8 -4 29 -25 49 -47 44 -48 51 -44 16 10 -23 34 -35 43 -76 51 -27 6 -50 11 -51 10 -1 0 -15 -7 -32 -14z m62 -30 c12 1 20 -2 17 -6 -2 -4 5 -10 16 -14 11 -4 28 -19 38 -33 9 -15 24 -32 32 -39 8 -7 11 -13 7 -13 -5 0 1 -15 12 -34 23 -37 29 -60 8 -31 -9 11 -16 14 -21 7 -9 -15 4 -43 18 -35 6 4 4 -2 -4 -12 -8 -10 -10 -16 -4 -12 7 4 11 -4 10 -23 -1 -37 -10 -27 -30 34 -13 39 -14 51 -4 57 9 6 7 18 -11 51 -28 52 -68 88 -98 88 -13 0 -27 10 -34 23 -11 21 -11 21 7 6 10 -9 29 -15 41 -14z m13 -59 c0 -2 -9 -2 -20 1 -12 3 -20 0 -20 -6 0 -7 4 -10 8 -7 11 6 92 -52 92 -66 0 -5 -18 4 -39 21 -21 17 -46 31 -54 31 -19 0 -27 21 -13 36 10 10 46 2 46 -10z m-77 -14 c10 -10 14 -22 10 -27 -5 -4 1 -5 11 -1 16 5 17 4 6 -9 -10 -13 -16 -11 -47 12 -25 19 -31 28 -21 34 19 12 23 11 41 -9z m77 -67 c7 -8 9 -15 5 -15 -4 0 -2 -7 5 -15 18 -21 34 3 17 25 -9 12 -9 13 3 3 16 -15 25 -57 10 -48 -18 11 -10 -11 10 -30 11 -10 20 -23 20 -29 0 -6 -19 11 -42 37 -29 34 -46 47 -59 44 -11 -3 -19 -4 -19 -2 0 2 -3 11 -7 21 -4 11 -3 15 5 10 6 -3 13 -2 17 4 9 14 20 12 35 -5z m-6 -81 c9 -3 16 -10 16 -15 0 -5 -9 -4 -20 3 -16 10 -22 10 -32 -1 -11 -11 -10 -13 2 -8 8 2 27 -6 41 -20 l26 -24 -2 25 c-4 31 -3 32 21 4 10 -12 14 -18 8 -15 -20 11 -26 -25 -8 -44 10 -11 13 -19 8 -19 -5 0 -22 18 -38 40 -17 22 -38 40 -47 40 -24 0 -35 20 -18 31 17 10 23 11 43 3z m96 -68 c-16 -16 -12 -30 4 -17 10 8 16 9 21 1 4 -6 1 -9 -7 -8 -7 2 -14 -8 -16 -22 -2 -13 -18 -44 -35 -67 -39 -54 -51 -148 -22 -169 15 -11 16 -16 5 -29 -10 -12 -10 -15 1 -15 11 0 11 -2 -1 -10 -11 -7 -11 -10 -2 -10 7 0 10 -5 7 -10 -12 -20 -27 3 -22 33 2 20 -1 37 -11 46 -10 11 -13 27 -8 60 7 53 27 111 38 111 15 0 36 56 31 83 -3 14 -2 34 1 44 6 15 8 15 16 3 6 -9 5 -19 0 -24z m-70 -36 l21 -29 -22 4 c-17 4 -19 2 -9 -10 21 -25 -4 -16 -29 11 -13 14 -30 23 -38 19 -24 -9 -9 19 17 32 28 14 32 12 60 -27z m-105 -11 c-3 -4 3 -12 12 -18 10 -6 14 -10 8 -10 -15 0 -62 28 -47 29 6 0 12 5 12 11 0 5 -4 7 -10 4 -5 -3 -10 2 -10 11 0 16 1 16 20 -1 11 -10 17 -21 15 -26z m50 -30 c0 -5 5 -9 10 -10 15 -1 35 -20 35 -33 0 -6 -5 -3 -11 7 -6 9 -14 15 -19 12 -5 -3 -11 -1 -14 4 -3 5 -15 7 -27 4 -16 -4 -17 -8 -7 -14 9 -6 9 -9 1 -9 -25 0 -23 20 2 30 17 6 24 14 19 22 -4 8 -3 10 2 5 5 -5 9 -13 9 -18z m-79 -95 c1 -37 1 -38 -3 -4 -3 19 -10 39 -16 43 -8 6 -7 7 3 4 10 -2 15 -17 16 -43z m124 26 c0 -5 -4 -10 -10 -10 -5 0 -10 5 -10 10 0 6 5 10 10 10 6 0 10 -4 10 -10z m-80 -150 c0 -11 4 -20 9 -20 5 0 13 9 16 20 3 11 10 20 15 20 17 0 40 -32 39 -53 -1 -21 -1 -20 -8 2 -9 32 -27 37 -41 12 -14 -28 -28 -26 -36 4 -6 26 -18 32 -28 16 -4 -5 0 -12 6 -14 8 -3 6 -6 -4 -6 -10 -1 -18 -6 -18 -13 0 -6 -2 -9 -5 -6 -3 3 -1 17 4 32 13 32 51 37 51 6z m-85 -48 c-18 -4 -19 -14 -3 -30 9 -9 9 -15 0 -24 -10 -10 -17 -6 -10 5 1 1 -4 12 -11 25 -7 13 -8 22 -2 22 6 0 8 7 4 16 -5 14 -3 14 16 2 17 -10 18 -14 6 -16z m75 -13 c7 -11 9 -27 6 -35 -3 -8 3 -23 14 -34 11 -11 20 -15 20 -10 0 6 8 5 20 -2 11 -7 20 -18 20 -25 0 -17 10 -16 40 3 23 14 23 14 -2 -9 -18 -17 -23 -27 -15 -30 7 -3 4 -6 -5 -6 -10 -1 -18 -5 -18 -11 0 -5 -5 -10 -10 -10 -7 0 -7 6 0 19 13 26 13 28 -5 28 -9 0 -14 -6 -11 -14 3 -8 2 -11 -3 -8 -5 3 -15 21 -21 40 -6 19 -15 35 -19 35 -4 0 -15 -16 -24 -36 -10 -19 -23 -34 -29 -32 -22 8 -19 25 7 36 14 6 25 17 25 23 0 8 -7 6 -18 -4 -21 -19 -32 -22 -32 -7 0 6 6 10 13 10 23 1 48 47 38 72 -6 13 -10 17 -10 11 -1 -16 -31 -17 -31 -2 0 5 5 7 10 4 6 -3 10 -1 10 4 0 18 19 12 30 -10z m90 -11 c0 -12 -18 -10 -25 2 -10 17 -25 1 -25 -28 0 -20 -3 -23 -9 -13 -6 10 -4 25 5 43 13 24 17 26 34 16 11 -7 20 -16 20 -20z m35 -18 c-14 -15 -15 -20 -4 -21 12 0 12 -2 0 -6 -10 -4 -10 -7 -1 -13 8 -5 7 -9 -4 -13 -23 -9 -22 49 2 62 25 15 27 13 7 -9z m-45 -20 c0 -5 -2 -10 -4 -10 -3 0 -8 5 -11 10 -3 6 -1 10 4 10 6 0 11 -4 11 -10z m-160 -22 c0 -6 -6 -5 -15 2 -8 7 -15 14 -15 16 0 2 7 1 15 -2 8 -4 15 -11 15 -16z" />
    <path d="M1780 885 c7 -8 17 -15 22 -15 5 0 3 7 -6 15 -8 8 -18 15 -22 15 -3 0 -1 -7 6 -15z" />
    <path d="M1845 820 c-3 -5 3 -10 15 -10 12 0 18 5 15 10 -3 6 -10 10 -15 10 -5 0 -12 -4 -15 -10z" />
    <path d="M1848 661 c-14 -5 -13 -8 7 -24 26 -19 41 -9 22 16 -7 8 -19 12 -29 8z" />
    <path d="M1840 221 c0 -5 7 -11 15 -15 8 -3 15 -1 15 3 0 5 -7 11 -15 15 -8 3 -15 1 -15 -3z" />
    <path
      d="M1678 913 c-21 -5 -23 -19 -5 -26 7 -3 5 -6 -5 -6 -10 -1 -18 -8 -18 -17 0 -17 13 -12 47 19 12 11 20 24 17 28 -5 9 -8 10 -36 2z" />
    <path
      d="M1682 858 c-10 -10 -7 -15 10 -24 18 -9 27 -9 45 3 34 22 17 36 -20 16 -30 -15 -31 -15 -18 0 15 19 1 23 -17 5z" />
    <path d="M1780 795 c0 -2 10 -10 23 -16 20 -11 21 -11 8 4 -13 16 -31 23 -31 12z" />
    <path
      d="M1692 778 c-17 -17 -15 -33 2 -19 10 8 16 9 21 1 10 -15 25 -12 25 6 0 10 -6 14 -14 11 -8 -3 -16 -1 -18 4 -2 6 -8 5 -16 -3z" />
    <path
      d="M1779 164 c-19 -21 -31 -25 -61 -22 -21 2 -38 1 -38 -2 0 -15 43 -39 90 -49 46 -10 57 -9 98 11 47 22 47 22 17 25 -18 2 -41 16 -56 33 l-25 30 -25 -26z m50 -28 c9 -10 7 -17 -6 -27 -16 -13 -17 -12 -4 4 8 9 9 17 3 17 -6 0 -18 3 -27 7 -14 5 -16 2 -10 -18 7 -21 6 -22 -9 -10 -19 16 -5 41 24 41 10 0 23 -6 29 -14z" />
  </g>
</svg>